<svg xmlns="http://www.w3.org/2000/svg" xmlns:xlink="http://www.w3.org/1999/xlink" width="500" zoomAndPan="magnify" viewBox="0 0 375 374.999991" height="500" preserveAspectRatio="xMidYMid meet" version="1.2"><defs><clipPath id="9497bb52d2"><path d="M 48.257812 66.882812 L 326.507812 66.882812 L 326.507812 308 L 48.257812 308 Z M 48.257812 66.882812 "/></clipPath></defs><g id="dc8ffd8640"><rect x="0" width="375" y="0" height="374.999991" style="fill:#ffffff;fill-opacity:1;stroke:none;"/><rect x="0" width="375" y="0" height="374.999991" style="fill:#506c83;fill-opacity:1;stroke:none;"/><g clip-rule="nonzero" clip-path="url(#9497bb52d2)"><path style=" stroke:none;fill-rule:evenodd;fill:#ffffff;fill-opacity:1;" d="M 136.535156 162.308594 L 111.320312 118.6875 L 111.320312 118.628906 L 81.492188 66.925781 L 48.257812 66.925781 L 86.414062 133.027344 L 119.886719 191.046875 Z M 263.445312 118.628906 L 238.234375 162.308594 L 254.820312 191.046875 L 288.296875 133.027344 L 326.507812 66.925781 L 293.277344 66.925781 Z M 194.976562 120.328125 L 217.578125 81.144531 L 225.839844 66.925781 L 259.074219 66.925781 L 211.625 149.125 Z M 170.738281 162.308594 L 159.863281 143.476562 L 115.695312 66.925781 L 148.925781 66.925781 L 154.941406 77.378906 L 187.324219 133.511719 L 203.96875 162.308594 L 221.101562 191.957031 L 237.6875 220.695312 L 199.839844 286.308594 L 187.382812 307.875 L 174.929688 286.246094 L 137.082031 220.632812 L 144.675781 207.449219 L 144.675781 207.390625 L 153.667969 191.835938 L 163.144531 175.371094 L 176.628906 198.761719 L 179.789062 204.230469 L 170.3125 220.695312 L 187.445312 250.339844 L 204.578125 220.695312 L 187.382812 191.105469 Z M 170.738281 162.308594 "/></g></g></svg>